<svg width="2238" height="382" xmlns="http://www.w3.org/2000/svg">

 <g class="currentLayer">
  <title>Layer 1</title>
  <text stroke="#000" transform="matrix(1.229860722720474,0,0,1.229860722720474,-114.07991853438367,-7.266531138744023) " xml:space="preserve" text-anchor="start" font-family="Helvetica, Arial, sans-serif" font-size="250" id="svg_2" y="251.935086" x="449.368403" stroke-width="0" fill="#636363">SimplyRETS</text>
  <g stroke="null" id="svg_26">
   <g stroke="null" transform="matrix(0.62145025364563,0,0,0.62145025364563,-248.84335888402217,-82.41407365170181) " id="svg_24">
    <title stroke="null" transform="translate(0,-5.171485424041748) translate(-8637.0986328125,-6794.2216796875) translate(-15475.7275390625,2997.450927734375) translate(24545.537109375,0) translate(0,3940.837890625) ">background</title>
    <rect stroke="null" x="431.710938" y="137.895653" width="602" height="602" id="svg_22" fill="none"/>
   </g>
   <g stroke="null" transform="matrix(0.62145025364563,0,0,0.62145025364563,-248.84335888402217,-82.41407365170181) " id="svg_25">
    <title stroke="null" transform="translate(0,-5.171485424041748) translate(-8637.0986328125,-6794.2216796875) translate(-15475.7275390625,2997.450927734375) translate(24545.537109375,0) translate(0,3940.837890625) ">Layer 1</title>
    <ellipse stroke="#ffffff" fill="#47a447" cx="733.710934" cy="438.755025" id="svg_21" rx="298.499997" ry="298.499997"/>
    <path stroke="null" fill="#ffffff" d="m913.23759,489.924598l0,129.366629c0,12.006812 -9.659616,21.666428 -21.666428,21.666428l-104.721068,0c-5.958268,0 -10.833214,-4.874946 -10.833214,-10.833214l0,-101.109996c0,-5.958268 -4.874946,-10.833214 -10.833214,-10.833214l-64.999283,0c-5.958268,0 -10.833214,4.874946 -10.833214,10.833214l0,101.109996c0,5.958268 -4.874946,10.833214 -10.833214,10.833214l-104.721068,0c-12.006812,0 -21.666428,-9.659616 -21.666428,-21.666428l0,-129.366629c0,-3.249964 1.444429,-6.319375 3.972178,-8.395741l169.720351,-139.748459c3.972178,-3.249964 9.749893,-3.249964 13.812348,0l169.720351,139.748459c2.437473,2.076366 3.881902,5.145777 3.881902,8.395741l0.000001,0zm75.47139,-54.978561l-75.47139,-62.200703l0,-125.033344c0,-5.958268 -4.874946,-10.833214 -10.833214,-10.833214l-50.554998,0c-5.958268,0 -10.833214,4.874946 -10.833214,10.833214l0,65.540944l-80.79772,-66.533989c-15.97899,-13.18041 -39.089847,-13.18041 -55.068837,0l-228.490536,188.227091c-4.604116,3.791625 -5.236053,10.65266 -1.444429,15.256776l23.02058,27.985803c3.791625,4.604116 10.65266,5.236053 15.256776,1.444429l212.330992,-174.866128c3.972178,-3.249964 9.749893,-3.249964 13.812348,0l212.330992,174.866128c4.604116,3.791625 11.465151,3.159687 15.256776,-1.444429l23.02058,-27.985803c3.791625,-4.694393 3.069411,-11.465151 -1.534705,-15.256776l-0.000001,0.000001z" id="svg_20"/>
   </g>
  </g>
 </g>
 <g>
  <title>Layer 2</title>
  <rect fill="none" y="0" x="0" height="100%" width="100%" id="backgroundrect"/>
 </g>
 <g>
  <title>background</title>
  <rect fill="none" id="canvas_background" height="384" width="2240" y="-1" x="-1"/>
 </g>
</svg>