<svg width="600" height="600" xmlns="http://www.w3.org/2000/svg" class="svg-inline--fa fa-home fa-w-18">

 <g>
  <title>background</title>
  <rect fill="none" id="canvas_background" height="602" width="602" y="-1" x="-1"/>
 </g>
 <g>
  <title>Layer 1</title>
  <ellipse stroke="#ffffff" ry="298.499997" rx="298.499997" id="svg_2" cy="299.859372" cx="300.999997" fill="#47a447"/>
  <path stroke="null" id="svg_1" d="m480.526652,351.028945l0,129.366629c0,12.006812 -9.659616,21.666428 -21.666428,21.666428l-104.721068,0c-5.958268,0 -10.833214,-4.874946 -10.833214,-10.833214l0,-101.109996c0,-5.958268 -4.874946,-10.833214 -10.833214,-10.833214l-64.999283,0c-5.958268,0 -10.833214,4.874946 -10.833214,10.833214l0,101.109996c0,5.958268 -4.874946,10.833214 -10.833214,10.833214l-104.721068,0c-12.006812,0 -21.666428,-9.659616 -21.666428,-21.666428l0,-129.366629c0,-3.249964 1.444429,-6.319375 3.972178,-8.395741l169.720351,-139.748459c3.972178,-3.249964 9.749893,-3.249964 13.812348,0l169.720351,139.748459c2.437473,2.076366 3.881902,5.145777 3.881902,8.395741zm75.47139,-54.978561l-75.47139,-62.200703l0,-125.033344c0,-5.958268 -4.874946,-10.833214 -10.833214,-10.833214l-50.554998,0c-5.958268,0 -10.833214,4.874946 -10.833214,10.833214l0,65.540944l-80.79772,-66.533989c-15.97899,-13.18041 -39.089847,-13.18041 -55.068837,0l-228.490536,188.227091c-4.604116,3.791625 -5.236053,10.65266 -1.444429,15.256776l23.02058,27.985803c3.791625,4.604116 10.65266,5.236053 15.256776,1.444429l212.330992,-174.866128c3.972178,-3.249964 9.749893,-3.249964 13.812348,0l212.330992,174.866128c4.604116,3.791625 11.465151,3.159687 15.256776,-1.444429l23.02058,-27.985803c3.791625,-4.694393 3.069411,-11.465151 -1.534705,-15.256776z" fill="#ffffff"/>
 </g>
</svg>